<?xml version="1.0" encoding="UTF-8"?>
<svg id="_레이어_1" data-name="레이어 1" xmlns="http://www.w3.org/2000/svg" viewBox="0 0 2834.65 2834.65">
  <defs>
    <style>
      .cls-1 {
        fill: #e60012;
      }
    </style>
  </defs>
  <path class="cls-1" d="m1915.83,816.85c-20.96-55.25-52.85-103.69-94.8-144.01-41.9-40.25-92.71-70.84-151.01-90.91-57.65-19.84-124.15-29.9-197.65-29.9s-136.04,9.87-193.84,29.33c-58.25,19.62-110.5,49.48-155.31,88.75-90.06,78.95-136.52,183.94-138.11,312.07l-.25,20.25h250.56v-20c0-63.2,20.8-111.97,63.59-149.08,43.05-37.34,101.37-56.28,173.35-56.28s129.67,20.53,167.24,61c37.96,40.92,57.21,99.04,57.21,172.74s-30.33,149.92-90.16,217.45l-148.63,152.94-.39.42c-59.88,65.26-100.26,125.97-120.03,180.43-19.61,54.03-30.33,128.02-31.88,219.92l-.34,20.34h250.65v-20c0-109.17,26.07-193.53,77.48-250.73l123.5-122.22.4-.41c62.6-65.6,110.29-132.8,141.76-199.73,31.81-67.66,47.95-136.89,47.95-205.76s-10.53-131.88-31.29-186.62Z"/>
  <path class="cls-1" d="m1440.53,2001.87c-46.68,0-82.87,14.01-107.58,41.65-24.11,26.97-36.33,60.57-36.33,99.87s12.3,72.74,36.56,99c24.69,26.69,60.8,40.22,107.35,40.22s82.71-13.48,107.79-40.09c24.73-26.27,37.27-59.62,37.27-99.13s-12.46-73.02-37.05-100.01c-25.09-27.54-61.43-41.51-108.01-41.51Z"/>
</svg>