<?xml version="1.0" encoding="UTF-8"?>
<svg id="_레이어_1" data-name="레이어 1" xmlns="http://www.w3.org/2000/svg" viewBox="0 0 2834.65 2834.65">
  <defs>
    <style>
      .cls-1 {
        fill: #e71f19;
      }
    </style>
  </defs>
  <path class="cls-1" d="m1379.34,1506.12c.89-53.14,6.92-95.13,18.1-125.94,11.18-30.81,33.99-64.98,68.43-102.51l87.89-90.44c37.57-42.32,56.35-87.77,56.35-136.34s-12.31-83.43-36.9-109.95c-24.6-26.5-60.38-39.77-107.34-39.77s-82.29,12.04-110.02,36.09c-27.73,24.05-41.59,56.35-41.59,96.88h-124.1c.89-72.45,26.72-130.92,77.47-175.41,50.75-44.49,116.84-66.75,198.24-66.75s150.38,22.68,197.56,67.99c47.17,45.34,70.78,107.53,70.78,186.58s-36.23,155.19-108.68,231.12l-73.11,72.35c-32.67,36.18-48.98,88.22-48.98,156.1h-124.1Zm-5.37,213.06c0-20.29,6.15-37.32,18.44-51.07s30.53-20.64,54.68-20.64,42.49,6.89,55.01,20.64c12.52,13.75,18.78,30.78,18.78,51.07s-6.26,37.1-18.78,50.4c-12.52,13.28-30.86,19.94-55.01,19.94s-42.39-6.66-54.68-19.94c-12.29-13.3-18.44-30.1-18.44-50.4Z"/>
</svg>