<?xml version="1.0" encoding="UTF-8"?>
<svg id="_레이어_1" data-name="레이어 1" xmlns="http://www.w3.org/2000/svg" viewBox="0 0 2834.65 2834.65">
  <defs>
    <style>
      .cls-1 {
        fill: #e71f19;
      }
    </style>
  </defs>
  <path class="cls-1" d="m1537.76,2294.56h-240.87c-63.11,0-124.36-12.37-182.05-36.77-55.69-23.56-105.7-57.27-148.63-100.2s-76.64-92.94-100.2-148.63c-24.4-57.69-36.77-118.94-36.77-182.05v-714c0-63.11,12.37-124.36,36.77-182.05,23.56-55.69,57.27-105.7,100.2-148.63,42.93-42.93,92.94-76.64,148.63-100.2,57.69-24.4,118.94-36.77,182.05-36.77h240.87c63.11,0,124.36,12.37,182.05,36.77,55.69,23.56,105.7,57.27,148.63,100.2,42.93,42.93,76.64,92.94,100.2,148.63,24.4,57.69,36.77,118.94,36.77,182.05v714c0,63.11-12.37,124.36-36.77,182.05-23.56,55.69-57.27,105.7-100.2,148.63s-92.94,76.64-148.63,100.2c-57.69,24.4-118.94,36.77-182.05,36.77Zm-240.87-1542.06c-198.73,0-360.41,161.68-360.41,360.41v714c0,198.73,161.68,360.41,360.41,360.41h240.87c198.73,0,360.41-161.68,360.41-360.41v-714c0-198.73-161.68-360.41-360.41-360.41h-240.87Z"/>
  <rect class="cls-1" x="1296.34" y="861.43" width="241.97" height="429.32" rx="120.99" ry="120.99"/>
  <polygon class="cls-1" points="1313.63 515.14 1237.8 439.31 1409 268.1 1582.65 436.15 1508.08 513.21 1410.24 418.53 1313.63 515.14"/>
</svg>